HIERARCHY
ROOT root
{
	OFFSET	0	13.1	24.9
	CHANNELS 6  Xposition Yposition Zposition Xrotation Yrotation Zrotation
	JOINT spine_1
	{
		OFFSET	0	9.99999	0
		CHANNELS 3  Xrotation Yrotation Zrotation
		JOINT spine_2
		{
			OFFSET	0	112	-10
			CHANNELS 3  Xrotation Yrotation Zrotation
			JOINT spine_3
			{
				OFFSET	0	206.5	19.3
				CHANNELS 3  Xrotation Yrotation Zrotation
				JOINT spine_4
				{
					OFFSET	0	110.4	14.6
					CHANNELS 3  Xrotation Yrotation Zrotation
					JOINT neck_1
					{
						OFFSET	0	71.8	-50.3
						CHANNELS 3  Xrotation Yrotation Zrotation
						JOINT neck_2
						{
							OFFSET	0	86.2	-25.8
							CHANNELS 3  Xrotation Yrotation Zrotation
							JOINT head_ee
							{
								OFFSET	0	179.8	-8.7
								CHANNELS 3  Xrotation Yrotation Zrotation
								End Site
								{
									OFFSET	1	0	0
								}
							}
						}
					}
					JOINT left_clavicle
					{
						OFFSET	-43.2	22.4	-70.8
						CHANNELS 3  Xrotation Yrotation Zrotation
						JOINT left_shoulder
						{
							OFFSET	-93.9	-5.79999	48.7
							CHANNELS 3  Xrotation Yrotation Zrotation
							JOINT left_elbow
							{
								OFFSET	-291.4	-30.8	15.2
								CHANNELS 3  Xrotation Yrotation Zrotation
								JOINT left_lowarm_twist
								{
									OFFSET	-110.7	-3.89999	13.6
									CHANNELS 3  Xrotation Yrotation Zrotation
									JOINT left_hand
									{
										OFFSET	-110.7	-3.89999	13.6
										CHANNELS 3  Xrotation Yrotation Zrotation
										JOINT left_ee
										{
											OFFSET	-80.8	-5.10001	12.1
											CHANNELS 3  Xrotation Yrotation Zrotation
											End Site
											{
												OFFSET	1	0	0
											}
										}
									}
								}
							}
						}
					}
					JOINT right_clavicle
					{
						OFFSET	43.2	22.4	-70.8
						CHANNELS 3  Xrotation Yrotation Zrotation
						JOINT right_shoulder
						{
							OFFSET	93.9	-5.79999	48.7
							CHANNELS 3  Xrotation Yrotation Zrotation
							JOINT right_elbow
							{
								OFFSET	291.4	-30.8	15.2
								CHANNELS 3  Xrotation Yrotation Zrotation
								JOINT right_lowarm_twist
								{
									OFFSET	110.7	-3.89999	13.6
									CHANNELS 3  Xrotation Yrotation Zrotation
									JOINT right_hand
									{
										OFFSET	110.7	-3.89999	13.6
										CHANNELS 3  Xrotation Yrotation Zrotation
										JOINT right_ee
										{
											OFFSET	80.8	-5.10001	12.1
											CHANNELS 3  Xrotation Yrotation Zrotation
											End Site
											{
												OFFSET	1	0	0
											}
										}
									}
								}
							}
						}
					}
				}
			}
		}
	}
	JOINT left_hip
	{
		OFFSET	-82.8	-127.5	0.300001
		CHANNELS 3  Xrotation Yrotation Zrotation
		JOINT left_knee
		{
			OFFSET	-28.2	-396.7	2.2
			CHANNELS 3  Xrotation Yrotation Zrotation
			JOINT left_ankle
			{
				OFFSET	-11.7	-411.3	35.4
				CHANNELS 3  Xrotation Yrotation Zrotation
				JOINT left_toes
				{
					OFFSET	0	-60	-88.6
					CHANNELS 3  Xrotation Yrotation Zrotation
					JOINT left_foot_ee
					{
						OFFSET	-22.5	-16.5	-42.2
						CHANNELS 3  Xrotation Yrotation Zrotation
						End Site
						{
							OFFSET	1	0	0
						}
					}
				}
			}
		}
	}
	JOINT right_hip
	{
		OFFSET	82.8	-127.5	0.300001
		CHANNELS 3  Xrotation Yrotation Zrotation
		JOINT right_knee
		{
			OFFSET	28.2	-396.7	2.2
			CHANNELS 3  Xrotation Yrotation Zrotation
			JOINT right_ankle
			{
				OFFSET	11.7	-411.3	35.4
				CHANNELS 3  Xrotation Yrotation Zrotation
				JOINT right_toes
				{
					OFFSET	0	-60	-88.6
					CHANNELS 3  Xrotation Yrotation Zrotation
					JOINT right_foot_ee
					{
						OFFSET	22.5	-16.5	-42.2
						CHANNELS 3  Xrotation Yrotation Zrotation
						End Site
						{
							OFFSET	1	0	0
						}
					}
				}
			}
		}
	}
}
MOTION
Frames: 10
Frame Time: 0.02
2800.94 716.97 -1473.77 -49.2429131843 84.6958017636 46.6926774527 3.61572 -0.447761 -1.77994 3.61742 -0.33361 -1.80482 3.62715 -0.0630785 -1.8343 3.62263 -0.351933 -1.80134 -10.7916 11.8244 8.14195 -10.727 16.957 10.9553 -0.0 0.0 -0.0 8.24596 7.93827 15.7605 -6.85879 -33.2292 53.4537 3.46576 -59.7661 1.99194 -85.1268 -8.46777 5.18145 -1.69906 22.6819 -0.779407 -0.0 0.0 -0.0 0.767904 -0.436801 -1.52576 -36.1326 17.2124 -65.92 0.664663 18.2245 -0.106609 5.37501 -0.158129 0.668115 2.2399 -17.1562 -21.1631 0.0 0.0 0.0 -9.45269 -7.35046 10.2978 -9.35183 0.270625 1.40811 21.3075 24.0226 -3.02335 16.599 -0.0 -0.0 -0.0 0.0 -0.0 36.9902 12.1322 5.33182 -2.65128 -0.100047 -0.394548 -22.3494 5.80461 -3.47178 -16.5213 0.0 0.0 0.0 0.0 0.0 
2624.4057409 726.415 -1502.88423247 -152.733542689 83.9810509241 148.891476575 3.67358 -0.116502 -1.01753 3.67416 -0.0515216 -1.02288 3.67479 0.0994946 -1.01934 3.67335 -0.0627304 -1.02226 -9.27091 14.9242 6.00163 -9.32708 23.9552 9.45264 -0.0 0.0 -0.0 4.06823 5.70363 8.08719 -16.6162 -30.2497 59.1094 2.67512 -52.9519 1.33254 -85.1114 -8.46584 5.18183 -2.07483 20.7905 -3.88192 -0.0 0.0 -0.0 2.7145 -3.00372 -5.43871 -31.1918 23.2093 -60.7018 0.80679 21.7845 -0.155252 5.44432 -0.159757 0.676818 3.01477 -28.5829 -28.8898 0.0 0.0 0.0 -10.9291 -5.61682 8.74857 -20.6908 0.286787 3.14498 15.2321 28.1745 -2.26855 21.1679 -0.0 -0.0 -0.0 0.0 -0.0 29.4746 12.3071 4.90844 -13.6346 -0.317154 -2.06345 -7.49403 15.4314 -1.21927 -12.8699 0.0 0.0 0.0 0.0 0.0 
2624.84394949 726.415 -1505.42697655 -148.650409446 84.7020297589 144.788448282 3.67358 -0.116502 -1.01753 3.67416 -0.0515216 -1.02288 3.67479 0.0994946 -1.01934 3.67335 -0.0627304 -1.02226 -9.27091 14.9242 6.00163 -9.32708 23.9552 9.45264 -0.0 0.0 -0.0 4.06823 5.70363 8.08719 -16.6162 -30.2497 59.1094 2.67512 -52.9519 1.33254 -85.1114 -8.46584 5.18183 -2.07483 20.7905 -3.88192 -0.0 0.0 -0.0 2.7145 -3.00372 -5.43871 -31.1918 23.2093 -60.7018 0.80679 21.7845 -0.155252 5.44432 -0.159757 0.676818 3.01477 -28.5829 -28.8898 0.0 0.0 0.0 -10.9291 -5.61682 8.74857 -20.6908 0.286787 3.14498 15.2321 28.1745 -2.26855 21.1679 -0.0 -0.0 -0.0 0.0 -0.0 29.4746 12.3071 4.90844 -13.6346 -0.317154 -2.06345 -7.49403 15.4314 -1.21927 -12.8699 0.0 0.0 0.0 0.0 0.0 
2625.4532672 726.415 -1508.64677994 -141.598397659 85.5645957848 137.711185244 3.67358 -0.116502 -1.01753 3.67416 -0.0515216 -1.02288 3.67479 0.0994946 -1.01934 3.67335 -0.0627304 -1.02226 -9.27091 14.9242 6.00163 -9.32708 23.9552 9.45264 -0.0 0.0 -0.0 4.06823 5.70363 8.08719 -16.6162 -30.2497 59.1094 2.67512 -52.9519 1.33254 -85.1114 -8.46584 5.18183 -2.07483 20.7905 -3.88192 -0.0 0.0 -0.0 2.7145 -3.00372 -5.43871 -31.1918 23.2093 -60.7018 0.80679 21.7845 -0.155252 5.44432 -0.159757 0.676818 3.01477 -28.5829 -28.8898 0.0 0.0 0.0 -10.9291 -5.61682 8.74857 -20.6908 0.286787 3.14498 15.2321 28.1745 -2.26855 21.1679 -0.0 -0.0 -0.0 0.0 -0.0 29.4746 12.3071 4.90844 -13.6346 -0.317154 -2.06345 -7.49403 15.4314 -1.21927 -12.8699 0.0 0.0 0.0 0.0 0.0 
2626.25078348 726.415 -1512.44377406 -129.051912929 86.4534725658 125.134821164 3.67358 -0.116502 -1.01753 3.67416 -0.0515216 -1.02288 3.67479 0.0994946 -1.01934 3.67335 -0.0627304 -1.02226 -9.27091 14.9242 6.00163 -9.32708 23.9552 9.45264 -0.0 0.0 -0.0 4.06823 5.70363 8.08719 -16.6162 -30.2497 59.1094 2.67512 -52.9519 1.33254 -85.1114 -8.46584 5.18183 -2.07483 20.7905 -3.88192 -0.0 0.0 -0.0 2.7145 -3.00372 -5.43871 -31.1918 23.2093 -60.7018 0.80679 21.7845 -0.155252 5.44432 -0.159757 0.676818 3.01477 -28.5829 -28.8898 0.0 0.0 0.0 -10.9291 -5.61682 8.74857 -20.6908 0.286787 3.14498 15.2321 28.1745 -2.26855 21.1679 -0.0 -0.0 -0.0 0.0 -0.0 29.4746 12.3071 4.90844 -13.6346 -0.317154 -2.06345 -7.49403 15.4314 -1.21927 -12.8699 0.0 0.0 0.0 0.0 0.0 
2627.10148796 726.415 -1516.10385054 -110.544795087 87.0593741592 106.598777245 3.67358 -0.116502 -1.01753 3.67416 -0.0515216 -1.02288 3.67479 0.0994946 -1.01934 3.67335 -0.0627304 -1.02226 -9.27091 14.9242 6.00163 -9.32708 23.9552 9.45264 -0.0 0.0 -0.0 4.06823 5.70363 8.08719 -16.6162 -30.2497 59.1094 2.67512 -52.9519 1.33254 -85.1114 -8.46584 5.18183 -2.07483 20.7905 -3.88192 -0.0 0.0 -0.0 2.7145 -3.00372 -5.43871 -31.1918 23.2093 -60.7018 0.80679 21.7845 -0.155252 5.44432 -0.159757 0.676818 3.01477 -28.5829 -28.8898 0.0 0.0 0.0 -10.9291 -5.61682 8.74857 -20.6908 0.286787 3.14498 15.2321 28.1745 -2.26855 21.1679 -0.0 -0.0 -0.0 0.0 -0.0 29.4746 12.3071 4.90844 -13.6346 -0.317154 -2.06345 -7.49403 15.4314 -1.21927 -12.8699 0.0 0.0 0.0 0.0 0.0 
2584.93645388 740.862 -1515.00077963 -41.4508474532 87.3063450431 36.993964103 3.30598 0.131296 -0.333063 3.30602 0.152224 -0.324033 3.30514 0.20015 -0.296833 3.30505 0.150759 -0.324718 -8.69551 15.4544 5.198 -8.75745 25.3915 8.68834 -0.0 0.0 -0.0 2.71671 5.58998 5.61026 -22.4065 -30.221 60.1744 2.23958 -47.963 0.996363 -85.133 -8.46855 5.18129 -2.22342 20.6884 -4.81079 -0.0 0.0 -0.0 2.95086 0.656807 -5.64173 -27.2315 27.0687 -59.7307 0.899743 24.0225 -0.191435 5.12671 -0.152211 0.636948 3.20484 -30.2891 -30.3532 0.0 0.0 0.0 -4.59038 -4.78993 6.24085 -28.5 0.0985906 4.3277 6.03354 28.5199 -0.926744 19.7156 -0.0 -0.0 -0.0 0.0 -0.0 27.0318 11.8114 3.99492 -19.2596 -0.303713 -2.92605 -3.08525 18.2405 -0.509178 -11.3321 0.0 0.0 0.0 0.0 0.0 
2585.59484184 740.862 -1518.31180041 -31.6073024957 86.5969300645 27.1367274506 3.30598 0.131296 -0.333063 3.30602 0.152224 -0.324033 3.30514 0.20015 -0.296833 3.30505 0.150759 -0.324718 -8.69551 15.4544 5.198 -8.75745 25.3915 8.68834 -0.0 0.0 -0.0 2.71671 5.58998 5.61026 -22.4065 -30.221 60.1744 2.23958 -47.963 0.996363 -85.133 -8.46855 5.18129 -2.22342 20.6884 -4.81079 -0.0 0.0 -0.0 2.95086 0.656807 -5.64173 -27.2315 27.0687 -59.7307 0.899743 24.0225 -0.191435 5.12671 -0.152211 0.636948 3.20484 -30.2891 -30.3532 0.0 0.0 0.0 -4.59038 -4.78993 6.24085 -28.5 0.0985906 4.3277 6.03354 28.5199 -0.926744 19.7156 -0.0 -0.0 -0.0 0.0 -0.0 27.0318 11.8114 3.99492 -19.2596 -0.303713 -2.92605 -3.08525 18.2405 -0.509178 -11.3321 0.0 0.0 0.0 0.0 0.0 
2571.47418141 738.005 -1525.43083597 -23.7990042447 86.5626861535 19.3938321062 3.2837 0.0846508 -0.173832 3.28371 0.0955406 -0.168093 3.28343 0.120262 -0.151394 3.28341 0.0948432 -0.168488 -8.5284 15.3702 5.19624 -8.57708 25.1997 8.63013 -0.0 0.0 -0.0 2.78794 5.70176 5.74708 -23.3593 -29.4216 60.0497 2.09027 -45.9924 0.887182 -85.0874 -8.46285 5.18243 -2.16561 20.5336 -4.54598 -0.0 0.0 -0.0 2.86395 1.86198 -5.38704 -26.3008 28.0385 -59.4539 1.02312 26.8763 -0.244468 5.37745 -0.158187 0.668421 3.24052 -30.2077 -30.571 0.0 0.0 0.0 -2.61234 -4.84016 7.15588 -30.7477 0.014704 4.66242 4.35139 28.0043 -0.669094 19.3873 -0.0 -0.0 -0.0 0.0 -0.0 26.4182 11.7237 3.55354 -19.9326 -0.296436 -3.02904 -1.89972 18.4558 -0.313217 -11.1057 0.0 0.0 0.0 0.0 0.0 
2551.6890187 748.302 -1531.97491071 -23.0011174075 84.2239926599 18.1406280706 3.10186 0.184259 0.134876 3.10186 0.175303 0.146328 3.10231 0.150163 0.172029 3.10231 0.175447 0.146154 -8.63069 14.8788 4.82275 -8.68932 24.5532 8.17208 -0.0 0.0 -0.0 2.96552 7.34648 6.16262 -26.5902 -27.7292 59.8332 1.75723 -41.0352 0.657661 -84.6933 -8.41356 5.19202 -2.00966 19.7316 -4.01496 -0.0 0.0 -0.0 3.18102 3.27 -5.91279 -23.7556 29.8545 -59.8447 1.2355 31.4666 -0.348071 5.4767 -0.160514 0.680885 3.19926 -29.947 -30.2723 0.0 0.0 0.0 1.01958 -4.70727 6.19098 -33.8664 -0.123337 5.12101 1.4758 27.3727 -0.227614 18.6661 -0.0 -0.0 -0.0 0.0 -0.0 24.3793 11.3471 3.24458 -17.4378 -0.31734 -2.64686 0.112126 18.6072 0.0184139 -10.495 0.0 0.0 0.0 0.0 0.0 
